<?xml version="1.0" standalone="no"?>
<!DOCTYPE svg PUBLIC "-//W3C//DTD SVG 20010904//EN"
 "http://www.w3.org/TR/2001/REC-SVG-20010904/DTD/svg10.dtd">
<svg version="1.0" xmlns="http://www.w3.org/2000/svg"
 width="312.000000pt" height="312.000000pt" viewBox="0 0 312.000000 312.000000"
 preserveAspectRatio="xMidYMid meet">
<metadata>
Created by potrace 1.14, written by Peter Selinger 2001-2017
</metadata>
<g transform="translate(0.000000,312.000000) scale(0.100000,-0.100000)"
fill="#000000" stroke="none">
<path d="M350 2600 l0 -90 -90 0 -90 0 0 -345 0 -345 90 0 90 0 0 -85 0 -85
-90 0 -90 0 0 -350 0 -350 90 0 90 0 0 -85 0 -85 85 0 85 0 0 -85 0 -85 85 0
85 0 0 -90 0 -90 955 0 955 0 0 175 0 175 85 0 85 0 0 85 0 85 90 0 90 0 0
780 0 780 -90 0 -90 0 0 90 0 90 -345 0 -345 0 0 -90 0 -90 -85 0 -85 0 0 -85
0 -85 -435 0 -435 0 0 85 0 85 -85 0 -85 0 0 90 0 90 -260 0 -260 0 0 -90z
m520 -435 l0 -175 -175 0 -175 0 0 90 0 90 85 0 85 0 0 85 0 85 90 0 90 0 0
-175z m1730 0 l0 -175 -175 0 -175 0 0 90 0 90 90 0 90 0 0 85 0 85 85 0 85 0
0 -175z m-170 -780 l0 -85 170 0 170 0 0 -175 0 -175 -85 0 -85 0 0 -85 0 -85
-85 0 -85 0 0 -85 0 -85 -870 0 -870 0 0 85 0 85 -85 0 -85 0 0 85 0 85 -85 0
-85 0 0 175 0 175 170 0 170 0 0 85 0 85 870 0 870 0 0 -85z"/>
</g>
</svg>
